<?xml version="1.0" encoding="utf-8"?>
<!-- Generator: Adobe Illustrator 19.1.0, SVG Export Plug-In . SVG Version: 6.00 Build 0)  -->
<svg version="1.1" id="Layer_1" xmlns="http://www.w3.org/2000/svg" xmlns:xlink="http://www.w3.org/1999/xlink" x="0px" y="0px"
	 width="1000px" height="1000px" viewBox="0 0 1000 1000" style="enable-background:new 0 0 1000 1000;" xml:space="preserve">
<style type="text/css">
	.st0{fill:#E2B171;}
	.st1{fill:#FCD4B1;}
	.st2{fill:#FFF1E4;}
	.st3{fill:#E50505;}
	.st4{fill:#6B0111;}
	.st5{fill:#00C13B;}
	.st6{fill:#FFF37A;}
	.st7{fill:#EE9CB0;}
	.st8{fill:#FED9B9;}
	.st9{fill:#C6DD7D;}
	.st10{fill:#D3E9EF;}
</style>
<g>
	<path class="st0" d="M698.2,527.6L541.7,974.3c-4,11.3-18.4,11.3-22.3,0L362.9,527.6c-7.4-21.1,6.6-43.8,27.1-43.8h281.2
		C691.5,483.8,705.6,506.5,698.2,527.6z"/>
	<path class="st1" d="M428.2,549.2l-56.4-56.4l-6.7,6.7c-0.6,1.1-1.1,2.2-1.6,3.4l55.5,55.5L385.4,592l4.8,13.6l38-38l41.1,41.1
		L427.8,650l-33.9-33.9l9.9,28.3l14.8,14.8l-7.1,7.1l4.8,13.6l11.5-11.5l42.9,42.9l-32.2,32.2l4.8,13.6l36.6-36.6l41.4,41.4
		L475.2,808l-21.6-21.6l9.9,28.3l2.5,2.5l-1.2,1.2l4.8,13.6l5.7-5.7l46.1,46.1l-27.8,27.8l4.8,13.6l32.3-32.3l32.2,32.2l4.8-13.6
		L540,872.4l46.1-46.1l5.5,5.5l4.8-13.6l-1-1l2.1-2.1l9.9-28.3L585.8,808l-46.1-46.1l41.4-41.4l36.6,36.6l4.8-13.6l-32.2-32.2
		l42.9-42.9l11.6,11.6l1-2.8l3.8-10.9l-7.2-7.2l14.9-14.8l9.9-28.3l-34,34l-41.4-41.4l41.1-41.1l38,38l4.8-13.6l-33.6-33.6
		l55.5-55.5c-0.5-1.2-1-2.3-1.6-3.4l-6.7-6.7l-56.4,56.4L590,506.3l22.5-22.5h-18.4l-13.3,13.3l-13.3-13.3h-18.4l22.5,22.5
		l-41.1,41.1l-41.1-41.1l22.5-22.5h-18.4l-13.3,13.3L467,483.8h-18.4l22.5,22.5L428.2,549.2z M437,659.2l41.4-41.4l42.9,42.9
		l-41.4,41.4L437,659.2z M576.6,817.2l-46.1,46.1l-46.1-46.1l46.1-46.1L576.6,817.2z M530.5,752.7l-41.4-41.4l41.4-41.4l41.4,41.4
		L530.5,752.7z M624.1,659.2l-42.9,42.9l-41.4-41.4l42.9-42.9L624.1,659.2z M580.8,515.5l42.9,42.9l-41.1,41.1l-42.9-42.9
		L580.8,515.5z M573.4,608.6l-42.9,42.9l-42.9-42.9l42.9-42.9L573.4,608.6z M480.3,515.4l41.1,41.1l-42.9,42.9l-41.1-41.1
		L480.3,515.4z"/>
	<path class="st2" d="M438.1,190.8c26.6-10.4,56.2-14.8,84.9-15.7c29.9-0.9,60.1,1.4,88.6,10.4c28.5,8.9,55.3,24.8,74.4,47.8
		c21.6,26.1,32.2,59.9,35.3,93.6c3.1,33.7-0.7,67.6-5,101.2c13-4.7,28.8,0.6,36.5,12c7.7,11.5,6.4,28.1-2.9,38.3
		c13.9,3.6,17.7,24.3,8.3,35.2c-9.4,10.9-26.6,12.2-39.9,6.8c-2.6,11.8-15.6,19.3-27.7,18.8s-23.1-7.3-32-15.5
		c-6,11.2-17.7,19.2-30.3,20.7c-12.6,1.5-25.9-3.4-34.4-12.8c-15.9,16.3-45.7,15.6-60.8-1.5c-6.4,10.2-17.9,16.9-29.9,17.6
		c-12,0.6-24.2-4.9-31.6-14.3c-7.5,9.9-20,15.8-32.5,15.3c-12.4-0.5-24.4-7.4-31.1-17.9c-14.8,15.3-44.3,11.2-54.3-7.6
		c2.4,4.4-23.1,9.3-35-0.7c-8.7-7.2-12.7-20.3-6-30.1c-9.4-0.5-17.5-9.7-16.7-19.1c0.7-9.4,10.2-17.2,19.5-16.2
		c-3.3-8.3,1-18.2,8.2-23.5c7.2-5.3,16.6-6.7,25.5-6.3c-5.7-35.7-9.7-72.2-5-108.1c4.7-35.9,18.6-71.5,44.4-96.9
		C402.7,208.3,419.7,198.1,438.1,190.8z"/>
	<path id="path10898" class="st3" d="M556.9,118.9c-6.7-0.9-13.6-0.9-20.3-1.5c-7.3-1.3-14.4-3.4-21.8-4.2
		c-14.1-0.7-27.4,7.6-33.3,19.4c-6.9,13.6-9,29.7-5.8,44.6c3.6,16.8,16.7,31.4,33.6,37.6c4.8,1.5,9.3,2.6,13.7,3.1
		c4.3,0.7,8.9,0.9,14,0.7c17.9-1.4,34.4-12,42.3-27.3c7-13.6,9.4-29.5,6.3-44.6c-2.5-13-13.1-24.4-26.8-27.6
		C558,119,557.4,119,556.9,118.9L556.9,118.9z"/>
	<path id="path5419" class="st4" d="M561.5,123.9c-6.8-1-15.4,0.5-22.1,0.2c-0.6-0.1-1.3-0.2-2-0.2c-0.1,0-0.3,0-0.3,0
		c-0.1,0-0.1,0-0.1,0c-0.8-0.2-1.5-0.3-2.1-0.4c-6.4-1.4-14.3-5.2-21.2-6.1c-2.6-0.3-5.1-0.3-7.2,0.5c7.6,1,18.2,6.2,25.6,8.9l0,0
		c0.1,0,0.2,0,0.2,0c1,0.5,2.3,0.9,4,1.3c0.1,0,0.2,0,0.3,0s0.2,0,0.3,0c2,0.2,3.4,0.1,4.5-0.1c7.9-0.6,19.4-2.8,27-1.7
		C566.4,124.9,564,124.3,561.5,123.9L561.5,123.9z"/>
	<path class="st5" d="M573.9,55.8L573.9,55.8c-0.8-1.7-3.1-1.9-4.1-0.4c-3.1,4.4-5.8,8.3-7.8,11.4c-1.6,2.4-3.1,4.8-4.6,7.2
		c-0.6-1.2-1.4-2.5-2.4-3.9c0-0.2,0.1-0.4,0.1-0.6c0.5-2.8,1.1-6.5,0.4-11.5l0,0c-1.1-7.1-4.6-14.4-10.7-22.4
		c-12.7-16.4-39.9-16.5-45.3-16.4h-0.1v0.5l-0.6,0.1c-0.2,5.8,0,10.2,0.6,14.4c1.7,11.3,6.6,19.7,15.2,25.8
		c12.4,8.9,24.6,12.6,38.4,11.8c1.1,1.5,2,3.2,2.5,4.9l0.1,0.3l0,0c-4.6,7.6-8.8,14.9-12.2,21.7c-4.8,9.7-8.2,18.3-8.6,24.8
		l-0.1,2.2l4.5,0.4l0.1-2.2c0.4-5.2,3.4-13.5,8.2-23.1c4.8-9.5,11.4-20.4,18.5-31.5c2.1-3.2,4.8-7,7.9-11.1
		C574.2,57.6,574.3,56.6,573.9,55.8z"/>
	<g>
		<path class="st6" d="M393.1,276.2L393.1,276.2c-3.6,0.1-6.6-2.8-6.6-6.5l-0.4-27.1c-0.1-3.6,2.8-6.6,6.5-6.6l0,0
			c3.6-0.1,6.6,2.8,6.6,6.5l0.4,27.1C399.6,273.1,396.6,276,393.1,276.2z"/>
		<path class="st7" d="M638.5,252L638.5,252c-3,2-7.1,1.2-9.1-1.7l-15.1-22.5c-2-3-1.2-7.1,1.7-9.1l0,0c3-2,7.1-1.2,9.1,1.7
			l15.1,22.5C642.3,245.9,641.4,250,638.5,252z"/>
		<path class="st6" d="M567.4,270L567.4,270c-3,2-7.1,1.2-9.1-1.9l-14.8-22.7c-2-3-1.2-7.1,1.9-9.1l0,0c3-2,7.1-1.2,9.1,1.9
			l14.8,22.7C571.3,264,570.4,268,567.4,270z"/>
		<path class="st8" d="M600.7,314L600.7,314c-3.4-1.5-4.7-5.4-3.4-8.6l11-24.8c1.5-3.4,5.4-4.7,8.6-3.4l0,0c3.4,1.5,4.7,5.4,3.4,8.6
			l-11,24.8C607.9,314,604.1,315.6,600.7,314z"/>
		<path class="st7" d="M433.5,321.8L433.5,321.8c-3.2,1.6-7.1,0.4-8.9-2.7l-12.5-24c-1.6-3.2-0.4-7.1,2.7-8.9l0,0
			c3.2-1.6,7.1-0.4,8.9,2.7l12.5,24C438,316.2,436.7,320.2,433.5,321.8z"/>
		<path class="st8" d="M496.8,335.6L496.8,335.6c-3.6,0.5-6.9-2-7.4-5.6l-3.6-26.9c-0.5-3.6,2-6.9,5.6-7.4l0,0
			c3.6-0.5,6.9,2,7.4,5.6l3.6,26.9C502.7,331.8,500.3,335.1,496.8,335.6z"/>
		<path class="st9" d="M543,350.6L543,350.6c-2.7-2.4-2.8-6.6-0.5-9.3l18-20.1c2.4-2.7,6.6-2.8,9.3-0.5l0,0c2.7,2.4,2.8,6.6,0.5,9.3
			l-18,20.1C549.9,352.7,545.8,353,543,350.6z"/>
		<path class="st10" d="M688.9,316L688.9,316c-2,3-5.9,3.9-9.1,2.1l-22.9-14.5c-3-2-3.9-5.9-2.1-9.1l0,0c2-3,5.9-3.9,9.1-2.1
			l22.9,14.5C689.9,308.9,690.8,313,688.9,316z"/>
		<path class="st9" d="M465.7,208.6L465.7,208.6c1.8,3,0.8,7.1-2.4,8.9L440,231.1c-3,1.8-7.1,0.8-8.9-2.4l0,0
			c-1.8-3-0.8-7.1,2.4-8.9l23.3-13.6C459.8,204.3,463.8,205.6,465.7,208.6z"/>
		<path class="st10" d="M466.6,269.8L466.6,269.8c-2.6-2.7-2.3-6.8,0.3-9.3l19.9-18.4c2.7-2.6,6.8-2.3,9.3,0.3l0,0
			c2.6,2.7,2.3,6.8-0.3,9.3L475.9,270C473.3,272.6,469.1,272.4,466.6,269.8z"/>
	</g>
</g>
</svg>
